<svg width="45" height="45" viewBox="0 0 45 45" fill="none" xmlns="http://www.w3.org/2000/svg">
<rect x="0.895508" y="0.880615" width="44" height="44" rx="22" fill="black"/>
<path fill-rule="evenodd" clip-rule="evenodd" d="M13.0072 16.8371C12.5949 16.8371 12.2025 17.0114 11.9277 17.3188L8.38033 21.2628V25.636C8.38033 26.4364 9.03058 27.0867 9.83241 27.0867H9.97833C10.1549 26.1902 10.6373 25.3829 11.3431 24.8026C12.0489 24.2223 12.9342 23.905 13.848 23.905C14.7617 23.905 15.647 24.2223 16.3528 24.8026C17.0586 25.3829 17.541 26.1902 17.7176 27.0867H27.5152C27.6919 26.1902 28.1742 25.3829 28.88 24.8026C29.5858 24.2223 30.4712 23.905 31.3849 23.905C32.2986 23.905 33.1839 24.2223 33.8897 24.8026C34.5955 25.3829 35.0779 26.1902 35.2545 27.0867H35.9586C36.7604 27.0867 37.4107 26.4364 37.4107 25.636V23.3028C37.4109 23.177 37.3686 23.0548 37.2907 22.9561C37.2128 22.8574 37.1038 22.7878 36.9814 22.7588L30.8019 21.284L24.6536 17.0907C24.4139 16.9234 24.1284 16.8343 23.8362 16.8357H13.0072V16.8371ZM17.4087 29.5446H27.8241C28.1441 30.218 28.6486 30.7868 29.2788 31.185C29.9091 31.5833 30.6393 31.7946 31.3849 31.7946C32.1304 31.7946 32.8607 31.5833 33.4909 31.185C34.1212 30.7868 34.6256 30.218 34.9457 29.5446H35.9586C36.9953 29.5442 37.9895 29.1321 38.7225 28.3989C39.4554 27.6657 39.8672 26.6714 39.8672 25.6346V23.3028C39.8672 21.9074 38.9095 20.6947 37.5523 20.3703L31.812 18.9989L26.0377 15.0606C25.3888 14.6172 24.621 14.3806 23.8362 14.3806H13.0072C11.8979 14.3806 10.8411 14.8509 10.1002 15.6754L6.41683 19.7724C6.09958 20.1258 5.92402 20.5839 5.92383 21.0588V25.6346C5.92383 26.6714 6.33558 27.6657 7.06854 28.3989C7.8015 29.1321 8.79566 29.5442 9.83241 29.5446H10.2857C10.6056 30.2183 11.1101 30.7875 11.7405 31.1861C12.3709 31.5846 13.1014 31.7961 13.8472 31.7961C14.5931 31.7961 15.3236 31.5846 15.954 31.1861C16.5844 30.7875 17.0888 30.2183 17.4087 29.5446ZM31.3842 26.3614C31.1851 26.3552 30.9867 26.3891 30.801 26.4611C30.6152 26.533 30.4458 26.6416 30.3028 26.7802C30.1598 26.9189 30.0461 27.0849 29.9684 27.2683C29.8908 27.4518 29.8508 27.649 29.8508 27.8482C29.8508 28.0474 29.8908 28.2445 29.9684 28.428C30.0461 28.6114 30.1598 28.7774 30.3028 28.9161C30.4458 29.0548 30.6152 29.1633 30.801 29.2352C30.9867 29.3072 31.1851 29.3411 31.3842 29.3349C31.7705 29.323 32.1371 29.1611 32.4062 28.8836C32.6753 28.6061 32.8258 28.2347 32.8258 27.8482C32.8258 27.4616 32.6753 27.0902 32.4062 26.8127C32.1371 26.5352 31.7705 26.3733 31.3842 26.3614ZM12.3612 27.8489C12.3524 27.6483 12.3843 27.4479 12.4551 27.26C12.5258 27.0721 12.6339 26.9004 12.7727 26.7553C12.9116 26.6103 13.0784 26.4948 13.263 26.416C13.4477 26.3371 13.6464 26.2965 13.8472 26.2965C14.0481 26.2965 14.2468 26.3371 14.4314 26.416C14.6161 26.4948 14.7829 26.6103 14.9218 26.7553C15.0606 26.9004 15.1687 27.0721 15.2394 27.26C15.3101 27.4479 15.3421 27.6483 15.3333 27.8489C15.3166 28.2318 15.1527 28.5934 14.8759 28.8585C14.599 29.1235 14.2305 29.2715 13.8472 29.2715C13.464 29.2715 13.0955 29.1235 12.8186 28.8585C12.5418 28.5934 12.3779 28.2318 12.3612 27.8489Z" fill="white"/>
</svg>
