<svg xmlns:xlink="http://www.w3.org/1999/xlink" xmlns="http://www.w3.org/2000/svg" width="104" height="20" fill="none" viewBox="0 0 104 20">
    <g fill="#E60000" clip-path="url(#autoru-red_svg__clip0_39_586)">
        <path d="M103.921 18.98h-3.994v-1.407l-.124-.064c-.936.832-2.278 1.92-4.774 1.92-4.274 0-6.52-3.264-6.52-8.448v-8h3.993v7.232c0 3.776 1.342 5.248 3.713 5.248s3.712-1.472 3.712-5.248V2.982h3.994zM79.963 4.454c.998-.928 2.87-1.472 4.68-1.472h1.996v4.031h-2.09c-3.12 0-4.71 1.856-4.71 5.44v6.528h-3.994v-16h3.993V4.39zm-11.446 9.887h4.586v4.64h-4.586zm-9.509 5.088c-4.774 0-8.424-3.616-8.424-8.448 0-4.831 3.65-8.447 8.424-8.447S67.43 6.15 67.43 10.98c0 4.832-3.65 8.448-8.423 8.448m-4.4-8.448c0 2.368 1.873 4.512 4.4 4.512s4.399-2.144 4.399-4.512-1.872-4.511-4.4-4.511c-2.526 0-4.398 2.143-4.398 4.511m-5.575 4.001v4h-3.806c-4.243 0-7.051-3.008-7.051-7.264V-.282h3.993v3.264h6.864v3.936h-6.864v3.552c0 3.04 1.498 4.511 4.462 4.511zm-13.81 3.999h-3.994v-1.407l-.125-.064c-.936.832-2.277 1.92-4.773 1.92-4.274 0-6.52-3.264-6.52-8.448v-8h3.993v7.232c0 3.776 1.342 5.248 3.713 5.248s3.712-1.472 3.712-5.248V2.982h3.994zM4.118 10.981c0 2.368 1.903 4.576 4.4 4.576 2.495 0 4.398-2.208 4.398-4.576s-1.903-4.575-4.399-4.575-4.399 2.207-4.399 4.575m12.73-8v16h-3.932v-1.408l-.125-.064c-.936.864-2.433 1.92-5.023 1.92C3.213 19.429 0 15.685 0 10.98c0-4.703 3.213-8.447 7.768-8.447 2.59 0 4.087 1.056 5.023 1.92l.125-.064V2.982z"/>
    </g>
    <defs>
        <clipPath id="autoru-red_svg__clip0_39_586">
            <path fill="#fff" d="M0 0h104v20H0z"/>
        </clipPath>
    </defs>
</svg>