<svg width="41" height="41" viewBox="0 0 41 41" fill="none" xmlns="http://www.w3.org/2000/svg">
<rect x="0.925293" y="0.880615" width="40" height="40" rx="20" fill="#0077FF"/>
<g clip-path="url(#clip0_2004_147)">
<mask id="mask0_2004_147" style="mask-type:luminance" maskUnits="userSpaceOnUse" x="11" y="10" width="20" height="21">
<path d="M11.0244 10.9797H30.8264V30.7817H11.0244V10.9797Z" fill="white"/>
</mask>
<g mask="url(#mask0_2004_147)">
<path fill-rule="evenodd" clip-rule="evenodd" d="M12.4165 12.3718C11.0244 13.7635 11.0244 16.0039 11.0244 20.4847V21.2768C11.0244 25.7574 11.0244 27.9978 12.4165 29.3896C13.8082 30.7817 16.0486 30.7817 20.5294 30.7817H21.3214C25.802 30.7817 28.0424 30.7817 29.4343 29.3896C30.8264 27.9978 30.8264 25.7574 30.8264 21.2768V20.4847C30.8264 16.0041 30.8264 13.7637 29.4343 12.3718C28.0426 10.9797 25.8022 10.9797 21.3214 10.9797H20.5294C16.0488 10.9797 13.8084 10.9797 12.4165 12.3718ZM14.366 17.0029C14.4733 22.1514 17.0476 25.2455 21.5607 25.2455H21.8165V22.2999C23.4749 22.4649 24.729 23.6778 25.2323 25.2455H27.5757C26.9321 22.9023 25.2405 21.6069 24.1844 21.1118C25.2405 20.5011 26.7258 19.0162 27.0805 17.0029H24.9517C24.4896 18.6366 23.1201 20.1217 21.8165 20.2619V17.0029H19.6878V22.7124C18.3676 22.3825 16.701 20.7817 16.6268 17.0029H14.366Z" fill="white"/>
</g>
</g>
<defs>
<clipPath id="clip0_2004_147">
<rect width="20" height="19.802" fill="white" transform="translate(10.9253 10.9797)"/>
</clipPath>
</defs>
</svg>
