<svg width="93" height="28" viewBox="0 0 93 28" fill="none" xmlns="http://www.w3.org/2000/svg">
<mask id="mask0_2009_353" style="mask-type:alpha" maskUnits="userSpaceOnUse" x="0" y="0" width="93" height="28">
<g clip-path="url(#clip0_2009_353)">
<g clip-path="url(#clip1_2009_353)">
<mask id="mask1_2009_353" style="mask-type:luminance" maskUnits="userSpaceOnUse" x="0" y="1" width="93" height="27">
<path d="M0.5 1.31055H92.5V27.3243H0.5V1.31055Z" fill="white"/>
</mask>
<g mask="url(#mask1_2009_353)">
<path d="M85.081 27.3243H7.91901C3.82786 27.3243 0.5 24.0377 0.5 19.9986V8.63628C0.5 4.59717 3.82786 1.31055 7.91901 1.31055H85.081C89.1721 1.31055 92.5 4.59717 92.5 8.63628V19.9986C92.5 24.0377 89.1721 27.3243 85.081 27.3243ZM7.91901 3.28125C4.92742 3.28125 2.49608 5.68277 2.49608 8.63628V19.9986C2.49608 22.9521 4.92742 25.3536 7.91901 25.3536H85.081C88.0726 25.3536 90.5039 22.9521 90.5039 19.9986V8.63628C90.5039 5.68277 88.0726 3.28125 85.081 3.28125H7.91901Z" fill="black"/>
<path d="M14.2886 20.0722C10.9309 20.0722 8.36572 17.6231 8.36572 14.353C8.36572 11.0823 10.9309 8.63379 14.2886 8.63379C17.6463 8.63379 20.2122 11.0829 20.2122 14.353C20.2122 17.6238 17.6463 20.0722 14.2886 20.0722ZM11.1961 14.3537C11.1961 15.9576 12.5121 17.4074 14.2886 17.4074C16.0652 17.4074 17.3811 15.9576 17.3811 14.3537C17.3811 12.7497 16.0652 11.2999 14.2886 11.2999C12.5121 11.2999 11.1961 12.7503 11.1961 14.3537ZM21.8491 19.769V8.93707H24.6586V16.995H29.3081V8.93707H32.1176V16.995H34.1797V22.1514H31.3708V19.769H21.8491ZM45.0261 19.0108C44.0389 19.5945 42.5459 20.0729 40.6387 20.0729C37.019 20.0729 34.8459 17.6022 34.8459 14.353C34.8459 11.1038 37.1287 8.63379 40.4192 8.63379C43.7096 8.63379 45.9918 11.1038 45.9918 14.353C45.9918 14.8289 45.9702 15.0687 45.9252 15.3701H37.8076C37.9599 16.3872 39.1235 17.4068 40.8119 17.4068C42.3474 17.4068 43.7521 17.0159 44.7178 16.4322H45.0255L45.0261 19.0108ZM42.985 12.9895C42.787 12.0149 41.7566 11.2358 40.4192 11.2358C39.0817 11.2358 38.1585 11.9731 37.8083 12.9901L42.985 12.9895ZM50.4516 19.769H47.6427V8.93707H50.4516V12.966H55.6074V8.93707H58.4163V19.7677H55.6074V15.7394H50.4516V19.769ZM60.8292 8.93707H63.5499V12.6412L70.6586 8.93771H70.9663V11.928L65.8321 14.2896V14.419L70.9663 16.7812V19.7715H70.6586L63.5499 16.2628V19.7715H60.8292V8.93707ZM74.8589 14.353C74.8589 15.957 76.1964 17.4518 77.952 17.4518C79.7076 17.4518 81.0444 15.9564 81.0444 14.353C81.0444 12.7497 79.707 11.2542 77.952 11.2542C76.1964 11.2542 74.8589 12.7497 74.8589 14.353ZM83.8108 8.93771V19.7683H81.047V18.816L80.9588 18.7735C80.3008 19.3572 79.2463 20.0735 77.4273 20.0735C74.225 20.0735 71.9644 17.54 71.9644 14.3537C71.9644 11.1679 74.225 8.63442 77.4273 8.63442C79.2495 8.63442 80.3008 9.35012 80.9588 9.93384L81.047 9.89197V8.93707L83.8108 8.93771Z" fill="black"/>
</g>
</g>
</g>
</mask>
<g mask="url(#mask0_2009_353)">
<rect x="0.5" width="92" height="28" fill="#E60000"/>
</g>
<defs>
<clipPath id="clip0_2009_353">
<rect width="92" height="28" fill="white" transform="translate(0.5)"/>
</clipPath>
<clipPath id="clip1_2009_353">
<rect width="92" height="27.9172" fill="white" transform="translate(0.5 0.0415039)"/>
</clipPath>
</defs>
</svg>
