<svg width="131" height="41" viewBox="0 0 131 41" fill="none" xmlns="http://www.w3.org/2000/svg">
<rect x="0.845703" y="0.880615" width="130.08" height="40" rx="20" fill="#495468" fill-opacity="0.1"/>
<rect x="10.8457" y="8.88062" width="24" height="24" rx="12" fill="#D42700"/>
<g clip-path="url(#clip0_2004_91)">
<g clip-path="url(#clip1_2004_91)">
<path d="M10.8457 20.8806C10.8457 14.2532 16.2183 8.88062 22.8457 8.88062C29.4731 8.88062 34.8457 14.2532 34.8457 20.8806C34.8457 27.508 29.4731 32.8806 22.8457 32.8806C16.2183 32.8806 10.8457 27.508 10.8457 20.8806Z" fill="#FC3F1D"/>
<path d="M24.6149 15.6013H23.4003C21.3183 15.6013 20.2775 16.6421 20.2775 18.2037C20.2775 19.9385 20.9715 20.8061 22.5329 21.8471L23.7473 22.7145L20.2773 28.0929H17.5015L20.7979 23.2349C18.8895 21.8469 17.8485 20.6325 17.8485 18.3771C17.8485 15.6011 19.7569 13.6929 23.4005 13.6929H27.0435V28.0929H24.6149V15.6013Z" fill="white"/>
</g>
</g>
<mask id="mask0_2004_91" style="mask-type:luminance" maskUnits="userSpaceOnUse" x="36" y="8" width="25" height="25">
<path d="M36.8457 8.88062H60.8457V32.8806H36.8457V8.88062Z" fill="white"/>
</mask>
<g mask="url(#mask0_2004_91)">
<path fill-rule="evenodd" clip-rule="evenodd" d="M48.8457 32.8806C58.4484 32.8806 60.8457 30.4828 60.8457 20.8806C60.8457 11.2779 58.4484 8.88062 48.8457 8.88062C39.243 8.88062 36.8457 11.2779 36.8457 20.8806C36.8457 30.4828 39.243 32.8806 48.8457 32.8806ZM44.7493 13.6806V28.0806H42.2457V13.6806H44.7493ZM50.3784 13.6806C51.3275 13.6806 52.2084 13.8006 53.0195 14.0603C53.8016 14.2922 54.5175 14.7062 55.1086 15.2684C55.6961 15.821 56.1619 16.5633 56.4902 17.4612C56.8355 18.3595 56.991 19.4815 56.991 20.8108C56.991 21.9852 56.8181 23.021 56.4902 23.9363C56.145 24.8341 55.6786 25.5939 55.0742 26.2152C54.4677 26.836 53.7304 27.3138 52.9159 27.6137C52.0868 27.9246 51.1552 28.0975 50.1706 28.0975H47.0113V13.6801L50.3784 13.6806ZM49.9639 26.129C50.637 26.129 51.2588 26.0084 51.8108 25.7837C52.3633 25.5595 52.8297 25.2143 53.2268 24.7823C53.6239 24.3333 53.9173 23.7808 54.1421 23.1077C54.3493 22.4341 54.4699 21.6568 54.4699 20.7595C54.4699 19.7926 54.3662 18.981 54.159 18.3246C53.9517 17.6684 53.6582 17.1333 53.2786 16.7363C52.9048 16.3373 52.4355 16.0401 51.915 15.8728C51.3968 15.7004 50.8099 15.6137 50.1706 15.6137H49.5144V26.1115H49.9633L49.9639 26.129Z" fill="#262633"/>
</g>
<path d="M76.7391 26H74.5818V17.5405H73.1236C72.7075 17.5405 72.3612 17.6021 72.0849 17.7253C71.8119 17.8451 71.6072 18.0216 71.4707 18.2546C71.3342 18.4877 71.2659 18.774 71.2659 19.1136C71.2659 19.4498 71.3342 19.7311 71.4707 19.9575C71.6072 20.1839 71.8119 20.3537 72.0849 20.4669C72.3579 20.5801 72.7008 20.6367 73.1136 20.6367H75.4607V22.3745H72.7641C71.9817 22.3745 71.3125 22.2447 70.7566 21.985C70.2006 21.7253 69.7761 21.3524 69.4832 20.8664C69.1902 20.377 69.0437 19.7927 69.0437 19.1136C69.0437 18.4377 69.1869 17.8501 69.4732 17.3508C69.7628 16.8481 70.1806 16.4602 70.7266 16.1872C71.2759 15.9109 71.9368 15.7727 72.7091 15.7727H76.7391V26ZM71.221 21.3458H73.5531L71.0662 26H68.6792L71.221 21.3458ZM83.8141 21.3158V22.9887H79.8091V21.3158H83.8141ZM80.5082 18.3295V26H78.4757V18.3295H80.5082ZM85.1474 18.3295V26H83.1299V18.3295H85.1474ZM86.1986 28.2472V24.3121H86.7879C86.9577 24.2056 87.0942 24.0358 87.1974 23.8027C87.3039 23.5697 87.3905 23.295 87.457 22.9788C87.5269 22.6625 87.5802 22.3212 87.6168 21.955C87.6568 21.5855 87.6917 21.2126 87.7217 20.8364L87.9215 18.3295H93.8041V24.3121H94.9927V28.2472H92.9652V26H88.276V28.2472H86.1986ZM88.9052 24.3121H91.7966V19.9675H89.7292L89.6493 20.8364C89.5927 21.6554 89.5111 22.3512 89.4046 22.9238C89.2981 23.4931 89.1316 23.9559 88.9052 24.3121ZM99.728 26.1498C98.939 26.1498 98.2598 25.99 97.6906 25.6704C97.1246 25.3475 96.6885 24.8914 96.3822 24.3021C96.0759 23.7095 95.9228 23.0087 95.9228 22.1997C95.9228 21.4107 96.0759 20.7182 96.3822 20.1223C96.6885 19.5264 97.1196 19.062 97.6756 18.729C98.2349 18.3961 98.8907 18.2297 99.6431 18.2297C100.149 18.2297 100.62 18.3112 101.056 18.4744C101.496 18.6342 101.879 18.8755 102.205 19.1985C102.535 19.5214 102.791 19.9276 102.974 20.4169C103.157 20.903 103.249 21.4723 103.249 22.1248V22.7091H96.7717V21.3907H101.246C101.246 21.0845 101.18 20.8131 101.046 20.5767C100.913 20.3404 100.728 20.1556 100.492 20.0224C100.259 19.8859 99.9877 19.8177 99.6781 19.8177C99.3551 19.8177 99.0688 19.8926 98.8191 20.0424C98.5728 20.1889 98.3797 20.387 98.2399 20.6367C98.1 20.883 98.0285 21.1577 98.0251 21.4606V22.7141C98.0251 23.0936 98.095 23.4215 98.2349 23.6979C98.378 23.9742 98.5794 24.1873 98.8391 24.3371C99.0988 24.4869 99.4067 24.5618 99.763 24.5618C99.9993 24.5618 100.216 24.5285 100.412 24.4619C100.609 24.3953 100.777 24.2955 100.917 24.1623C101.056 24.0291 101.163 23.866 101.236 23.6729L103.204 23.8027C103.104 24.2755 102.899 24.6883 102.589 25.0412C102.283 25.3908 101.887 25.6638 101.401 25.8602C100.918 26.0533 100.361 26.1498 99.728 26.1498ZM104.637 26V18.3295H106.764V21.3058H107.364L109.451 18.3295H111.948L109.236 22.1348L111.978 26H109.451L107.558 23.2784H106.764V26H104.637ZM116.026 26.1498C115.241 26.1498 114.565 25.9834 113.999 25.6504C113.436 25.3142 113.004 24.8481 112.701 24.2522C112.401 23.6562 112.251 22.9704 112.251 22.1947C112.251 21.409 112.403 20.7199 112.706 20.1273C113.012 19.5314 113.446 19.067 114.009 18.734C114.572 18.3978 115.241 18.2297 116.016 18.2297C116.686 18.2297 117.272 18.3512 117.774 18.5942C118.277 18.8372 118.675 19.1785 118.968 19.6179C119.261 20.0574 119.422 20.5734 119.452 21.166H117.445C117.388 20.7832 117.238 20.4752 116.995 20.2422C116.756 20.0058 116.441 19.8876 116.051 19.8876C115.722 19.8876 115.434 19.9775 115.188 20.1573C114.944 20.3337 114.755 20.5917 114.618 20.9313C114.482 21.2709 114.413 21.682 114.413 22.1648C114.413 22.6542 114.48 23.0703 114.613 23.4132C114.75 23.7561 114.941 24.0175 115.188 24.1972C115.434 24.377 115.722 24.4669 116.051 24.4669C116.294 24.4669 116.513 24.417 116.706 24.3171C116.902 24.2172 117.064 24.0724 117.19 23.8826C117.32 23.6895 117.405 23.4582 117.445 23.1885H119.452C119.419 23.7744 119.259 24.2905 118.973 24.7366C118.69 25.1794 118.299 25.5256 117.799 25.7753C117.3 26.025 116.709 26.1498 116.026 26.1498Z" fill="black"/>
<defs>
<clipPath id="clip0_2004_91">
<rect width="24" height="24" fill="white" transform="translate(10.8457 8.88062)"/>
</clipPath>
<clipPath id="clip1_2004_91">
<rect width="24" height="24" fill="white" transform="translate(10.8457 8.88062)"/>
</clipPath>
</defs>
</svg>
